<?xml version="1.0" encoding="UTF-8" standalone="no"?>
<!DOCTYPE svg PUBLIC "-//W3C//DTD SVG 1.1//EN"
 "http://www.w3.org/Graphics/SVG/1.1/DTD/svg11.dtd">
<!-- Generated by graphviz version 2.36.0 (20140111.2315)
 -->
<!-- Title: %3 Pages: 1 -->
<svg width="1110pt" height="1138pt"
 viewBox="0.00 0.00 1110.00 1138.00" xmlns="http://www.w3.org/2000/svg" xmlns:xlink="http://www.w3.org/1999/xlink">
<g id="graph0" class="graph" transform="scale(1 1) rotate(0) translate(4 1134)">
<title>%3</title>
<polygon fill="#f6f4f4" stroke="none" points="-4,4 -4,-1134 1106,-1134 1106,4 -4,4"/>
<g id="clust1" class="cluster"><title>cluster01</title>
<polygon fill="#f6f4f4" stroke="black" points="50,-8 50,-878 1094,-878 1094,-8 50,-8"/>
<text text-anchor="middle" x="572" y="-862.8" font-family="montserrat, sans-serif" font-size="14.00">dependencies</text>
</g>
<g id="clust2" class="cluster"><title>cluster02</title>
<polygon fill="#f6f4f4" stroke="black" points="8,-886 8,-1122 264,-1122 264,-886 8,-886"/>
<text text-anchor="middle" x="136" y="-1106.8" font-family="montserrat, sans-serif" font-size="14.00">colors legend</text>
</g>
<!-- Button -->
<g id="node1" class="node"><title>Button</title>
<ellipse fill="#dd4b39" stroke="#dd4b39" cx="971" cy="-668" rx="34.3701" ry="18"/>
<text text-anchor="middle" x="971" y="-663.8" font-family="montserrat, sans-serif" font-size="14.00" fill="white">Button</text>
</g>
<!-- ButtonExample -->
<g id="node2" class="node"><title>ButtonExample</title>
<ellipse fill="#dd4b39" stroke="#dd4b39" cx="721" cy="-722" rx="65.7322" ry="18"/>
<text text-anchor="middle" x="721" y="-717.8" font-family="montserrat, sans-serif" font-size="14.00" fill="white">ButtonExample</text>
</g>
<!-- ButtonExample&#45;&gt;Button -->
<g id="edge1" class="edge"><title>ButtonExample&#45;&gt;Button</title>
<path fill="none" stroke="#8f8f8f" d="M772.785,-710.942C819.096,-700.858 886.634,-686.152 929.435,-676.833"/>
<polygon fill="#8f8f8f" stroke="#8f8f8f" points="930.201,-680.248 939.228,-674.7 928.712,-673.408 930.201,-680.248"/>
</g>
<!-- CascadingUpdatesExample -->
<g id="node3" class="node"><title>CascadingUpdatesExample</title>
<ellipse fill="#dd4b39" stroke="#dd4b39" cx="439" cy="-776" rx="107.21" ry="18"/>
<text text-anchor="middle" x="439" y="-771.8" font-family="montserrat, sans-serif" font-size="14.00" fill="white">CascadingUpdatesExample</text>
</g>
<!-- StatefulButton -->
<g id="node36" class="node"><title>StatefulButton</title>
<ellipse fill="#dd4b39" stroke="#dd4b39" cx="721" cy="-776" rx="61.8822" ry="18"/>
<text text-anchor="middle" x="721" y="-771.8" font-family="montserrat, sans-serif" font-size="14.00" fill="white">StatefulButton</text>
</g>
<!-- CascadingUpdatesExample&#45;&gt;StatefulButton -->
<g id="edge2" class="edge"><title>CascadingUpdatesExample&#45;&gt;StatefulButton</title>
<path fill="none" stroke="#8f8f8f" d="M546.655,-776C580.812,-776 617.781,-776 648.769,-776"/>
<polygon fill="#8f8f8f" stroke="#8f8f8f" points="649.037,-779.5 659.036,-776 649.036,-772.5 649.037,-779.5"/>
</g>
<!-- ChildFloatNoStateControl -->
<g id="node4" class="node"><title>ChildFloatNoStateControl</title>
<ellipse fill="#dd4b39" stroke="#dd4b39" cx="971" cy="-452" rx="103.411" ry="18"/>
<text text-anchor="middle" x="971" y="-447.8" font-family="montserrat, sans-serif" font-size="14.00" fill="white">ChildFloatNoStateControl</text>
</g>
<!-- ChildFloatNoStateNoControl -->
<g id="node5" class="node"><title>ChildFloatNoStateNoControl</title>
<ellipse fill="#dd4b39" stroke="#dd4b39" cx="971" cy="-344" rx="114.028" ry="18"/>
<text text-anchor="middle" x="971" y="-339.8" font-family="montserrat, sans-serif" font-size="14.00" fill="white">ChildFloatNoStateNoControl</text>
</g>
<!-- ChildFloatStateControl -->
<g id="node6" class="node"><title>ChildFloatStateControl</title>
<ellipse fill="#dd4b39" stroke="#dd4b39" cx="971" cy="-236" rx="92.7948" ry="18"/>
<text text-anchor="middle" x="971" y="-231.8" font-family="montserrat, sans-serif" font-size="14.00" fill="white">ChildFloatStateControl</text>
</g>
<!-- ChildFloatStateNoControl -->
<g id="node7" class="node"><title>ChildFloatStateNoControl</title>
<ellipse fill="#dd4b39" stroke="#dd4b39" cx="971" cy="-560" rx="103.411" ry="18"/>
<text text-anchor="middle" x="971" y="-555.8" font-family="montserrat, sans-serif" font-size="14.00" fill="white">ChildFloatStateNoControl</text>
</g>
<!-- ChildIntNoStateControl -->
<g id="node8" class="node"><title>ChildIntNoStateControl</title>
<ellipse fill="#dd4b39" stroke="#dd4b39" cx="971" cy="-506" rx="95.2" ry="18"/>
<text text-anchor="middle" x="971" y="-501.8" font-family="montserrat, sans-serif" font-size="14.00" fill="white">ChildIntNoStateControl</text>
</g>
<!-- ChildIntNoStateNoControl -->
<g id="node9" class="node"><title>ChildIntNoStateNoControl</title>
<ellipse fill="#dd4b39" stroke="#dd4b39" cx="971" cy="-398" rx="105.816" ry="18"/>
<text text-anchor="middle" x="971" y="-393.8" font-family="montserrat, sans-serif" font-size="14.00" fill="white">ChildIntNoStateNoControl</text>
</g>
<!-- ChildIntStateControl -->
<g id="node10" class="node"><title>ChildIntStateControl</title>
<ellipse fill="#dd4b39" stroke="#dd4b39" cx="971" cy="-290" rx="84.084" ry="18"/>
<text text-anchor="middle" x="971" y="-285.8" font-family="montserrat, sans-serif" font-size="14.00" fill="white">ChildIntStateControl</text>
</g>
<!-- ChildIntStateNoControl -->
<g id="node11" class="node"><title>ChildIntStateNoControl</title>
<ellipse fill="#dd4b39" stroke="#dd4b39" cx="971" cy="-614" rx="95.2" ry="18"/>
<text text-anchor="middle" x="971" y="-609.8" font-family="montserrat, sans-serif" font-size="14.00" fill="white">ChildIntStateNoControl</text>
</g>
<!-- ChildRouting -->
<g id="node12" class="node"><title>ChildRouting</title>
<ellipse fill="#dd4b39" stroke="#dd4b39" cx="439" cy="-142" rx="58.0255" ry="18"/>
<text text-anchor="middle" x="439" y="-137.8" font-family="montserrat, sans-serif" font-size="14.00" fill="white">ChildRouting</text>
</g>
<!-- ComponentGallery -->
<g id="node13" class="node"><title>ComponentGallery</title>
<ellipse fill="#dd4b39" stroke="#dd4b39" cx="136" cy="-520" rx="77.7848" ry="18"/>
<text text-anchor="middle" x="136" y="-515.8" font-family="montserrat, sans-serif" font-size="14.00" fill="white">ComponentGallery</text>
</g>
<!-- ComponentGallery&#45;&gt;ButtonExample -->
<g id="edge3" class="edge"><title>ComponentGallery&#45;&gt;ButtonExample</title>
<path fill="none" stroke="#8f8f8f" d="M144.256,-538.111C162.063,-579.752 212.362,-681.73 292,-721 352.707,-750.935 543.77,-738.77 648.908,-729.265"/>
<polygon fill="#8f8f8f" stroke="#8f8f8f" points="649.48,-732.727 659.117,-728.326 648.838,-725.757 649.48,-732.727"/>
</g>
<!-- ComponentGallery&#45;&gt;CascadingUpdatesExample -->
<g id="edge4" class="edge"><title>ComponentGallery&#45;&gt;CascadingUpdatesExample</title>
<path fill="none" stroke="#8f8f8f" d="M143.927,-537.953C161.519,-581.013 212.262,-690.539 292,-744 305.297,-752.915 320.665,-759.392 336.333,-764.088"/>
<polygon fill="#8f8f8f" stroke="#8f8f8f" points="335.54,-767.5 346.111,-766.787 337.403,-760.752 335.54,-767.5"/>
</g>
<!-- ComponentGallery&#45;&gt;ChildRouting -->
<g id="edge5" class="edge"><title>ComponentGallery&#45;&gt;ChildRouting</title>
<path fill="none" stroke="#8f8f8f" d="M139.117,-501.895C146.992,-443.283 180.166,-257.403 292,-169 314.055,-151.566 343.818,-144.086 370.718,-141.243"/>
<polygon fill="#8f8f8f" stroke="#8f8f8f" points="371.203,-144.715 380.866,-140.37 370.602,-137.74 371.203,-144.715"/>
</g>
<!-- GalleryContainer -->
<g id="node14" class="node"><title>GalleryContainer</title>
<ellipse fill="#dd4b39" stroke="#dd4b39" cx="439" cy="-196" rx="71.4945" ry="18"/>
<text text-anchor="middle" x="439" y="-191.8" font-family="montserrat, sans-serif" font-size="14.00" fill="white">GalleryContainer</text>
</g>
<!-- ComponentGallery&#45;&gt;GalleryContainer -->
<g id="edge6" class="edge"><title>ComponentGallery&#45;&gt;GalleryContainer</title>
<path fill="none" stroke="#8f8f8f" d="M140.7,-501.708C152.395,-448.939 193.765,-295.582 292,-223 310.782,-209.123 334.555,-201.686 357.434,-197.87"/>
<polygon fill="#8f8f8f" stroke="#8f8f8f" points="358.121,-201.307 367.513,-196.404 357.113,-194.379 358.121,-201.307"/>
</g>
<!-- GalleryItem -->
<g id="node15" class="node"><title>GalleryItem</title>
<ellipse fill="#dd4b39" stroke="#dd4b39" cx="439" cy="-250" rx="52.6607" ry="18"/>
<text text-anchor="middle" x="439" y="-245.8" font-family="montserrat, sans-serif" font-size="14.00" fill="white">GalleryItem</text>
</g>
<!-- ComponentGallery&#45;&gt;GalleryItem -->
<g id="edge7" class="edge"><title>ComponentGallery&#45;&gt;GalleryItem</title>
<path fill="none" stroke="#8f8f8f" d="M142.875,-501.735C158.711,-455.663 206.93,-334.322 292,-277 316.465,-260.515 348.235,-253.373 375.888,-250.516"/>
<polygon fill="#8f8f8f" stroke="#8f8f8f" points="376.21,-254.001 385.869,-249.647 375.603,-247.027 376.21,-254.001"/>
</g>
<!-- LifecycleLogger -->
<g id="node16" class="node"><title>LifecycleLogger</title>
<ellipse fill="#dd4b39" stroke="#dd4b39" cx="439" cy="-304" rx="69.0546" ry="18"/>
<text text-anchor="middle" x="439" y="-299.8" font-family="montserrat, sans-serif" font-size="14.00" fill="white">LifecycleLogger</text>
</g>
<!-- ComponentGallery&#45;&gt;LifecycleLogger -->
<g id="edge8" class="edge"><title>ComponentGallery&#45;&gt;LifecycleLogger</title>
<path fill="none" stroke="#8f8f8f" d="M146.122,-501.87C166.494,-463.419 219.649,-373.722 292,-331 312.495,-318.898 337.2,-312.014 360.41,-308.157"/>
<polygon fill="#8f8f8f" stroke="#8f8f8f" points="361.224,-311.575 370.598,-306.637 360.191,-304.651 361.224,-311.575"/>
</g>
<!-- MultipleStateUpdatesPerEvent -->
<g id="node17" class="node"><title>MultipleStateUpdatesPerEvent</title>
<ellipse fill="#dd4b39" stroke="#dd4b39" cx="439" cy="-358" rx="119.788" ry="18"/>
<text text-anchor="middle" x="439" y="-353.8" font-family="montserrat, sans-serif" font-size="14.00" fill="white">MultipleStateUpdatesPerEvent</text>
</g>
<!-- ComponentGallery&#45;&gt;MultipleStateUpdatesPerEvent -->
<g id="edge9" class="edge"><title>ComponentGallery&#45;&gt;MultipleStateUpdatesPerEvent</title>
<path fill="none" stroke="#8f8f8f" d="M151.613,-502.187C176.898,-472.671 231.903,-414.008 292,-385 304.235,-379.094 317.622,-374.476 331.166,-370.865"/>
<polygon fill="#8f8f8f" stroke="#8f8f8f" points="332.182,-374.219 341.042,-368.409 330.493,-367.425 332.182,-374.219"/>
</g>
<!-- MultipleStateUpdatesPerEventQueued -->
<g id="node18" class="node"><title>MultipleStateUpdatesPerEventQueued</title>
<ellipse fill="#dd4b39" stroke="#dd4b39" cx="439" cy="-412" rx="147.292" ry="18"/>
<text text-anchor="middle" x="439" y="-407.8" font-family="montserrat, sans-serif" font-size="14.00" fill="white">MultipleStateUpdatesPerEventQueued</text>
</g>
<!-- ComponentGallery&#45;&gt;MultipleStateUpdatesPerEventQueued -->
<g id="edge10" class="edge"><title>ComponentGallery&#45;&gt;MultipleStateUpdatesPerEventQueued</title>
<path fill="none" stroke="#8f8f8f" d="M163.336,-503.1C193.326,-484.616 244.354,-455.438 292,-439 304.745,-434.603 318.377,-430.876 332.002,-427.728"/>
<polygon fill="#8f8f8f" stroke="#8f8f8f" points="332.9,-431.114 341.908,-425.537 331.388,-424.279 332.9,-431.114"/>
</g>
<!-- ReceivePropsExample -->
<g id="node26" class="node"><title>ReceivePropsExample</title>
<ellipse fill="#dd4b39" stroke="#dd4b39" cx="439" cy="-574" rx="90.329" ry="18"/>
<text text-anchor="middle" x="439" y="-569.8" font-family="montserrat, sans-serif" font-size="14.00" fill="white">ReceivePropsExample</text>
</g>
<!-- ComponentGallery&#45;&gt;ReceivePropsExample -->
<g id="edge11" class="edge"><title>ComponentGallery&#45;&gt;ReceivePropsExample</title>
<path fill="none" stroke="#8f8f8f" d="M197.912,-530.928C245.099,-539.393 310.759,-551.173 361.489,-560.274"/>
<polygon fill="#8f8f8f" stroke="#8f8f8f" points="360.965,-563.736 371.426,-562.056 362.201,-556.846 360.965,-563.736"/>
</g>
<!-- ReducerButtonExample -->
<g id="node28" class="node"><title>ReducerButtonExample</title>
<ellipse fill="#dd4b39" stroke="#dd4b39" cx="439" cy="-466" rx="95.1568" ry="18"/>
<text text-anchor="middle" x="439" y="-461.8" font-family="montserrat, sans-serif" font-size="14.00" fill="white">ReducerButtonExample</text>
</g>
<!-- ComponentGallery&#45;&gt;ReducerButtonExample -->
<g id="edge12" class="edge"><title>ComponentGallery&#45;&gt;ReducerButtonExample</title>
<path fill="none" stroke="#8f8f8f" d="M197.912,-509.072C244.454,-500.722 308.97,-489.148 359.403,-480.1"/>
<polygon fill="#8f8f8f" stroke="#8f8f8f" points="360.068,-483.537 369.292,-478.326 358.831,-476.647 360.068,-483.537"/>
</g>
<!-- ReducerTaxonomyExample -->
<g id="node29" class="node"><title>ReducerTaxonomyExample</title>
<ellipse fill="#dd4b39" stroke="#dd4b39" cx="439" cy="-520" rx="108.896" ry="18"/>
<text text-anchor="middle" x="439" y="-515.8" font-family="montserrat, sans-serif" font-size="14.00" fill="white">ReducerTaxonomyExample</text>
</g>
<!-- ComponentGallery&#45;&gt;ReducerTaxonomyExample -->
<g id="edge13" class="edge"><title>ComponentGallery&#45;&gt;ReducerTaxonomyExample</title>
<path fill="none" stroke="#8f8f8f" d="M214.124,-520C246.227,-520 284.228,-520 319.72,-520"/>
<polygon fill="#8f8f8f" stroke="#8f8f8f" points="320.15,-523.5 330.15,-520 320.149,-516.5 320.15,-523.5"/>
</g>
<!-- RefHaver -->
<g id="node30" class="node"><title>RefHaver</title>
<ellipse fill="#dd4b39" stroke="#dd4b39" cx="439" cy="-628" rx="44.4578" ry="18"/>
<text text-anchor="middle" x="439" y="-623.8" font-family="montserrat, sans-serif" font-size="14.00" fill="white">RefHaver</text>
</g>
<!-- ComponentGallery&#45;&gt;RefHaver -->
<g id="edge14" class="edge"><title>ComponentGallery&#45;&gt;RefHaver</title>
<path fill="none" stroke="#8f8f8f" d="M163.336,-536.9C193.326,-555.384 244.354,-584.562 292,-601 322.166,-611.407 357.299,-618.063 385.541,-622.162"/>
<polygon fill="#8f8f8f" stroke="#8f8f8f" points="385.226,-625.651 395.612,-623.558 386.187,-618.718 385.226,-625.651"/>
</g>
<!-- SideEffecterExample -->
<g id="node33" class="node"><title>SideEffecterExample</title>
<ellipse fill="#dd4b39" stroke="#dd4b39" cx="439" cy="-682" rx="85.6485" ry="18"/>
<text text-anchor="middle" x="439" y="-677.8" font-family="montserrat, sans-serif" font-size="14.00" fill="white">SideEffecterExample</text>
</g>
<!-- ComponentGallery&#45;&gt;SideEffecterExample -->
<g id="edge15" class="edge"><title>ComponentGallery&#45;&gt;SideEffecterExample</title>
<path fill="none" stroke="#8f8f8f" d="M151.613,-537.813C176.898,-567.329 231.903,-625.992 292,-655 309.774,-663.579 329.976,-669.442 349.563,-673.445"/>
<polygon fill="#8f8f8f" stroke="#8f8f8f" points="348.946,-676.891 359.424,-675.319 350.253,-670.014 348.946,-676.891"/>
</g>
<!-- SilentUpdater -->
<g id="node34" class="node"><title>SilentUpdater</title>
<ellipse fill="#dd4b39" stroke="#dd4b39" cx="721" cy="-668" rx="59.4512" ry="18"/>
<text text-anchor="middle" x="721" y="-663.8" font-family="montserrat, sans-serif" font-size="14.00" fill="white">SilentUpdater</text>
</g>
<!-- ComponentGallery&#45;&gt;SilentUpdater -->
<g id="edge16" class="edge"><title>ComponentGallery&#45;&gt;SilentUpdater</title>
<path fill="none" stroke="#8f8f8f" d="M144.993,-537.964C163.832,-577.762 215.283,-672.7 292,-709 351.056,-736.944 521.787,-721.046 586,-709 602.873,-705.835 605.703,-700.398 622,-695 635.75,-690.445 650.757,-686.036 664.802,-682.147"/>
<polygon fill="#8f8f8f" stroke="#8f8f8f" points="666.1,-685.42 674.827,-679.412 664.258,-678.667 666.1,-685.42"/>
</g>
<!-- StatefulButtonExample -->
<g id="node37" class="node"><title>StatefulButtonExample</title>
<ellipse fill="#dd4b39" stroke="#dd4b39" cx="439" cy="-830" rx="93.2447" ry="18"/>
<text text-anchor="middle" x="439" y="-825.8" font-family="montserrat, sans-serif" font-size="14.00" fill="white">StatefulButtonExample</text>
</g>
<!-- ComponentGallery&#45;&gt;StatefulButtonExample -->
<g id="edge17" class="edge"><title>ComponentGallery&#45;&gt;StatefulButtonExample</title>
<path fill="none" stroke="#8f8f8f" d="M141.163,-538.175C153.859,-589.177 197.142,-734.375 292,-803 305.617,-812.852 321.77,-819.436 338.282,-823.779"/>
<polygon fill="#8f8f8f" stroke="#8f8f8f" points="337.492,-827.189 348.029,-826.085 339.103,-820.377 337.492,-827.189"/>
</g>
<!-- MyBannerRe -->
<g id="node19" class="node"><title>MyBannerRe</title>
<ellipse fill="#8f8f8f" stroke="#8f8f8f" cx="439" cy="-88" rx="57.5065" ry="18"/>
<text text-anchor="middle" x="439" y="-83.8" font-family="montserrat, sans-serif" font-size="14.00" fill="white">MyBannerRe</text>
</g>
<!-- PageReason -->
<g id="node20" class="node"><title>PageReason</title>
<ellipse fill="blue" stroke="blue" cx="136" cy="-88" rx="53.1625" ry="18"/>
<text text-anchor="middle" x="136" y="-83.8" font-family="montserrat, sans-serif" font-size="14.00" fill="white">PageReason</text>
</g>
<!-- PageReason&#45;&gt;MyBannerRe -->
<g id="edge18" class="edge"><title>PageReason&#45;&gt;MyBannerRe</title>
<path fill="none" stroke="#8f8f8f" d="M189.43,-88C239.749,-88 315.975,-88 370.743,-88"/>
<polygon fill="#8f8f8f" stroke="#8f8f8f" points="371.053,-91.5001 381.052,-88 371.052,-84.5001 371.053,-91.5001"/>
</g>
<!-- ParentNoStateControl -->
<g id="node21" class="node"><title>ParentNoStateControl</title>
<ellipse fill="#dd4b39" stroke="#dd4b39" cx="721" cy="-506" rx="88.4257" ry="18"/>
<text text-anchor="middle" x="721" y="-501.8" font-family="montserrat, sans-serif" font-size="14.00" fill="white">ParentNoStateControl</text>
</g>
<!-- ParentNoStateControl&#45;&gt;ChildFloatStateNoControl -->
<g id="edge19" class="edge"><title>ParentNoStateControl&#45;&gt;ChildFloatStateNoControl</title>
<path fill="none" stroke="#8f8f8f" d="M782.034,-519.072C816.233,-526.519 859.372,-535.912 895.695,-543.821"/>
<polygon fill="#8f8f8f" stroke="#8f8f8f" points="895.23,-547.301 905.746,-546.009 896.719,-540.462 895.23,-547.301"/>
</g>
<!-- ParentNoStateControl&#45;&gt;ChildIntStateNoControl -->
<g id="edge20" class="edge"><title>ParentNoStateControl&#45;&gt;ChildIntStateNoControl</title>
<path fill="none" stroke="#8f8f8f" d="M788.984,-517.529C799.977,-521.311 810.774,-526.332 820,-533 843.378,-549.896 832.319,-570.531 856,-587 864.078,-592.618 873.173,-597.076 882.614,-600.614"/>
<polygon fill="#8f8f8f" stroke="#8f8f8f" points="881.549,-603.949 892.144,-603.852 883.802,-597.321 881.549,-603.949"/>
</g>
<!-- ParentNoStateNoControl -->
<g id="node22" class="node"><title>ParentNoStateNoControl</title>
<ellipse fill="#dd4b39" stroke="#dd4b39" cx="721" cy="-317" rx="99.0416" ry="18"/>
<text text-anchor="middle" x="721" y="-312.8" font-family="montserrat, sans-serif" font-size="14.00" fill="white">ParentNoStateNoControl</text>
</g>
<!-- ParentNoStateNoControl&#45;&gt;ChildFloatStateControl -->
<g id="edge21" class="edge"><title>ParentNoStateNoControl&#45;&gt;ChildFloatStateControl</title>
<path fill="none" stroke="#8f8f8f" d="M785.499,-303.256C797.262,-299.669 809.227,-295.286 820,-290 837.955,-281.19 837.888,-271.483 856,-263 866.792,-257.945 878.616,-253.79 890.435,-250.387"/>
<polygon fill="#8f8f8f" stroke="#8f8f8f" points="891.602,-253.697 900.338,-247.702 889.77,-246.941 891.602,-253.697"/>
</g>
<!-- ParentNoStateNoControl&#45;&gt;ChildIntStateControl -->
<g id="edge22" class="edge"><title>ParentNoStateNoControl&#45;&gt;ChildIntStateControl</title>
<path fill="none" stroke="#8f8f8f" d="M806.308,-307.821C831.844,-305.041 859.892,-301.988 885.445,-299.206"/>
<polygon fill="#8f8f8f" stroke="#8f8f8f" points="885.915,-302.675 895.478,-298.113 885.157,-295.716 885.915,-302.675"/>
</g>
<!-- ParentStateControl -->
<g id="node23" class="node"><title>ParentStateControl</title>
<ellipse fill="#dd4b39" stroke="#dd4b39" cx="721" cy="-398" rx="77.3089" ry="18"/>
<text text-anchor="middle" x="721" y="-393.8" font-family="montserrat, sans-serif" font-size="14.00" fill="white">ParentStateControl</text>
</g>
<!-- ParentStateControl&#45;&gt;ChildFloatNoStateNoControl -->
<g id="edge23" class="edge"><title>ParentStateControl&#45;&gt;ChildFloatNoStateNoControl</title>
<path fill="none" stroke="#8f8f8f" d="M778.275,-385.747C812.253,-378.348 856.017,-368.819 893.151,-360.733"/>
<polygon fill="#8f8f8f" stroke="#8f8f8f" points="893.91,-364.15 902.936,-358.603 892.42,-357.31 893.91,-364.15"/>
</g>
<!-- ParentStateControl&#45;&gt;ChildIntNoStateNoControl -->
<g id="edge24" class="edge"><title>ParentStateControl&#45;&gt;ChildIntNoStateNoControl</title>
<path fill="none" stroke="#8f8f8f" d="M798.432,-398C816.369,-398 835.871,-398 855.081,-398"/>
<polygon fill="#8f8f8f" stroke="#8f8f8f" points="855.09,-401.5 865.09,-398 855.09,-394.5 855.09,-401.5"/>
</g>
<!-- ParentStateNoControl -->
<g id="node24" class="node"><title>ParentStateNoControl</title>
<ellipse fill="#dd4b39" stroke="#dd4b39" cx="721" cy="-452" rx="88.4257" ry="18"/>
<text text-anchor="middle" x="721" y="-447.8" font-family="montserrat, sans-serif" font-size="14.00" fill="white">ParentStateNoControl</text>
</g>
<!-- ParentStateNoControl&#45;&gt;ChildFloatNoStateControl -->
<g id="edge25" class="edge"><title>ParentStateNoControl&#45;&gt;ChildFloatNoStateControl</title>
<path fill="none" stroke="#8f8f8f" d="M809.436,-452C824.765,-452 840.912,-452 856.821,-452"/>
<polygon fill="#8f8f8f" stroke="#8f8f8f" points="857.23,-455.5 867.229,-452 857.229,-448.5 857.23,-455.5"/>
</g>
<!-- ParentStateNoControl&#45;&gt;ChildIntNoStateControl -->
<g id="edge26" class="edge"><title>ParentStateNoControl&#45;&gt;ChildIntNoStateControl</title>
<path fill="none" stroke="#8f8f8f" d="M782.034,-465.072C816.889,-472.661 861.029,-482.272 897.775,-490.274"/>
<polygon fill="#8f8f8f" stroke="#8f8f8f" points="897.413,-493.777 907.929,-492.485 898.903,-486.937 897.413,-493.777"/>
</g>
<!-- ReceiveProps -->
<g id="node25" class="node"><title>ReceiveProps</title>
<ellipse fill="#dd4b39" stroke="#dd4b39" cx="721" cy="-560" rx="58.9668" ry="18"/>
<text text-anchor="middle" x="721" y="-555.8" font-family="montserrat, sans-serif" font-size="14.00" fill="white">ReceiveProps</text>
</g>
<!-- ReceiveProps&#45;&gt;Button -->
<g id="edge27" class="edge"><title>ReceiveProps&#45;&gt;Button</title>
<path fill="none" stroke="#8f8f8f" d="M774.925,-567.336C790.483,-571.328 806.841,-577.49 820,-587 843.378,-603.896 832.319,-624.531 856,-641 876.634,-655.351 903.911,-662.138 926.609,-665.32"/>
<polygon fill="#8f8f8f" stroke="#8f8f8f" points="926.327,-668.811 936.676,-666.543 927.171,-661.863 926.327,-668.811"/>
</g>
<!-- ReceivePropsExample&#45;&gt;ReceiveProps -->
<g id="edge28" class="edge"><title>ReceivePropsExample&#45;&gt;ReceiveProps</title>
<path fill="none" stroke="#8f8f8f" d="M526.676,-569.666C567.196,-567.64 614.721,-565.264 652.511,-563.374"/>
<polygon fill="#8f8f8f" stroke="#8f8f8f" points="653.085,-566.85 662.897,-562.855 652.735,-559.859 653.085,-566.85"/>
</g>
<!-- ReducerButton -->
<g id="node27" class="node"><title>ReducerButton</title>
<ellipse fill="#dd4b39" stroke="#dd4b39" cx="721" cy="-263" rx="63.7942" ry="18"/>
<text text-anchor="middle" x="721" y="-258.8" font-family="montserrat, sans-serif" font-size="14.00" fill="white">ReducerButton</text>
</g>
<!-- ReducerButtonExample&#45;&gt;ReducerButton -->
<g id="edge29" class="edge"><title>ReducerButtonExample&#45;&gt;ReducerButton</title>
<path fill="none" stroke="#8f8f8f" d="M533.942,-464.707C553.131,-460.325 571.777,-452.472 586,-439 635.461,-392.15 574.598,-338.933 622,-290 629.978,-281.765 640.218,-275.971 651.058,-271.909"/>
<polygon fill="#8f8f8f" stroke="#8f8f8f" points="652.274,-275.194 660.698,-268.767 650.105,-268.538 652.274,-275.194"/>
</g>
<!-- ReducerTaxonomyExample&#45;&gt;ParentNoStateControl -->
<g id="edge30" class="edge"><title>ReducerTaxonomyExample&#45;&gt;ParentNoStateControl</title>
<path fill="none" stroke="#8f8f8f" d="M543.466,-514.827C570.009,-513.5 598.436,-512.078 624.553,-510.772"/>
<polygon fill="#8f8f8f" stroke="#8f8f8f" points="625.009,-514.254 634.822,-510.259 624.66,-507.263 625.009,-514.254"/>
</g>
<!-- ReducerTaxonomyExample&#45;&gt;ParentNoStateNoControl -->
<g id="edge31" class="edge"><title>ReducerTaxonomyExample&#45;&gt;ParentNoStateNoControl</title>
<path fill="none" stroke="#8f8f8f" d="M544.375,-515.302C559.678,-510.683 574.222,-503.611 586,-493 628,-455.158 586.582,-415.064 622,-371 633.394,-356.824 649.562,-345.795 665.488,-337.506"/>
<polygon fill="#8f8f8f" stroke="#8f8f8f" points="667.362,-340.485 674.799,-332.939 664.279,-334.201 667.362,-340.485"/>
</g>
<!-- ReducerTaxonomyExample&#45;&gt;ParentStateControl -->
<g id="edge32" class="edge"><title>ReducerTaxonomyExample&#45;&gt;ParentStateControl</title>
<path fill="none" stroke="#8f8f8f" d="M541.127,-513.593C557.175,-509.231 572.807,-502.688 586,-493 613.563,-472.76 595.332,-446.406 622,-425 629.125,-419.281 637.377,-414.77 646.008,-411.214"/>
<polygon fill="#8f8f8f" stroke="#8f8f8f" points="647.316,-414.462 655.487,-407.717 644.893,-407.895 647.316,-414.462"/>
</g>
<!-- ReducerTaxonomyExample&#45;&gt;ParentStateNoControl -->
<g id="edge33" class="edge"><title>ReducerTaxonomyExample&#45;&gt;ParentStateNoControl</title>
<path fill="none" stroke="#8f8f8f" d="M520.19,-507.97C541.748,-503.978 564.924,-498.989 586,-493 602.513,-488.307 605.703,-484.398 622,-479 632.754,-475.438 644.278,-471.964 655.508,-468.759"/>
<polygon fill="#8f8f8f" stroke="#8f8f8f" points="656.594,-472.089 665.275,-466.016 654.701,-465.35 656.594,-472.089"/>
</g>
<!-- SideEffecter -->
<g id="node31" class="node"><title>SideEffecter</title>
<ellipse fill="#dd4b39" stroke="#dd4b39" cx="721" cy="-614" rx="54.286" ry="18"/>
<text text-anchor="middle" x="721" y="-609.8" font-family="montserrat, sans-serif" font-size="14.00" fill="white">SideEffecter</text>
</g>
<!-- SideEffecter&#45;&gt;Button -->
<g id="edge34" class="edge"><title>SideEffecter&#45;&gt;Button</title>
<path fill="none" stroke="#8f8f8f" d="M766.624,-623.716C812.811,-633.773 884.346,-649.35 929.108,-659.096"/>
<polygon fill="#8f8f8f" stroke="#8f8f8f" points="928.541,-662.555 939.056,-661.262 930.03,-655.715 928.541,-662.555"/>
</g>
<!-- SideEffecterCorrect -->
<g id="node32" class="node"><title>SideEffecterCorrect</title>
<ellipse fill="#dd4b39" stroke="#dd4b39" cx="721" cy="-830" rx="80.8208" ry="18"/>
<text text-anchor="middle" x="721" y="-825.8" font-family="montserrat, sans-serif" font-size="14.00" fill="white">SideEffecterCorrect</text>
</g>
<!-- SideEffecterCorrect&#45;&gt;Button -->
<g id="edge35" class="edge"><title>SideEffecterCorrect&#45;&gt;Button</title>
<path fill="none" stroke="#8f8f8f" d="M782.025,-818.201C794.995,-814.37 808.312,-809.398 820,-803 873.32,-773.814 923.263,-722.182 949.917,-691.933"/>
<polygon fill="#8f8f8f" stroke="#8f8f8f" points="952.574,-694.212 956.49,-684.368 947.29,-689.621 952.574,-694.212"/>
</g>
<!-- SideEffecterExample&#45;&gt;SideEffecter -->
<g id="edge36" class="edge"><title>SideEffecterExample&#45;&gt;SideEffecter</title>
<path fill="none" stroke="#8f8f8f" d="M510.056,-671.797C534.333,-667.537 561.577,-661.941 586,-655 602.513,-650.307 605.703,-646.398 622,-641 636.564,-636.176 652.539,-631.514 667.286,-627.461"/>
<polygon fill="#8f8f8f" stroke="#8f8f8f" points="668.529,-630.751 677.267,-624.758 666.7,-623.994 668.529,-630.751"/>
</g>
<!-- SilentUpdater&#45;&gt;Button -->
<g id="edge37" class="edge"><title>SilentUpdater&#45;&gt;Button</title>
<path fill="none" stroke="#8f8f8f" d="M780.458,-668C825.248,-668 886.049,-668 926.583,-668"/>
<polygon fill="#8f8f8f" stroke="#8f8f8f" points="926.684,-671.5 936.684,-668 926.684,-664.5 926.684,-671.5"/>
</g>
<!-- SimpleRoot -->
<g id="node35" class="node"><title>SimpleRoot</title>
<ellipse fill="#dd4b39" stroke="#dd4b39" cx="136" cy="-34" rx="52.2278" ry="18"/>
<text text-anchor="middle" x="136" y="-29.8" font-family="montserrat, sans-serif" font-size="14.00" fill="white">SimpleRoot</text>
</g>
<!-- Page -->
<g id="node38" class="node"><title>Page</title>
<ellipse fill="pink" stroke="pink" cx="439" cy="-34" rx="27.0958" ry="18"/>
<text text-anchor="middle" x="439" y="-29.8" font-family="montserrat, sans-serif" font-size="14.00" fill="white">Page</text>
</g>
<!-- SimpleRoot&#45;&gt;Page -->
<g id="edge38" class="edge"><title>SimpleRoot&#45;&gt;Page</title>
<path fill="none" stroke="#8f8f8f" d="M188.402,-34C249.006,-34 348.205,-34 401.465,-34"/>
<polygon fill="#8f8f8f" stroke="#8f8f8f" points="401.48,-37.5001 411.48,-34 401.479,-30.5001 401.48,-37.5001"/>
</g>
<!-- StatefulButtonExample&#45;&gt;StatefulButton -->
<g id="edge39" class="edge"><title>StatefulButtonExample&#45;&gt;StatefulButton</title>
<path fill="none" stroke="#8f8f8f" d="M507.642,-817.723C532.32,-813.183 560.438,-807.939 586,-803 610.255,-798.314 636.94,-792.975 660.07,-788.288"/>
<polygon fill="#8f8f8f" stroke="#8f8f8f" points="660.981,-791.674 670.085,-786.255 659.588,-784.814 660.981,-791.674"/>
</g>
<!-- LegendReadonOrange -->
<g id="node39" class="node"><title>LegendReadonOrange</title>
<ellipse fill="#dd4b39" stroke="#dd4b39" cx="136" cy="-1074" rx="118.361" ry="18"/>
<text text-anchor="middle" x="136" y="-1069.8" font-family="montserrat, sans-serif" font-size="14.00" fill="white">Component not called from JS</text>
</g>
<!-- LegendBlue -->
<g id="node40" class="node"><title>LegendBlue</title>
<ellipse fill="blue" stroke="blue" cx="136" cy="-1020" rx="111.102" ry="18"/>
<text text-anchor="middle" x="136" y="-1015.8" font-family="montserrat, sans-serif" font-size="14.00" fill="white">Component callable from JS</text>
</g>
<!-- LegendReasonGrey -->
<g id="node41" class="node"><title>LegendReasonGrey</title>
<ellipse fill="#8f8f8f" stroke="#8f8f8f" cx="136" cy="-966" rx="97.6139" ry="18"/>
<text text-anchor="middle" x="136" y="-961.8" font-family="montserrat, sans-serif" font-size="14.00" fill="white">Component wrapping JS</text>
</g>
<!-- LegendPink -->
<g id="node42" class="node"><title>LegendPink</title>
<ellipse fill="pink" stroke="pink" cx="136" cy="-912" rx="119.831" ry="18"/>
<text text-anchor="middle" x="136" y="-907.8" font-family="montserrat, sans-serif" font-size="14.00" fill="white">JS Component used by Reason</text>
</g>
</g>
</svg>
